<svg width="24" height="26" viewBox="0 0 24 26" fill="none" xmlns="http://www.w3.org/2000/svg">
<path d="M23.4396 18.0179C23.3117 17.7135 23.1835 17.3836 23.0555 17.1043C22.8503 16.6477 22.6453 16.2159 22.4665 15.8101L22.4409 15.7847C20.6731 11.978 18.7779 8.12103 16.7796 4.31479L16.7029 4.16217C16.4927 3.76732 16.2879 3.36969 16.0884 2.9694C15.832 2.51231 15.5761 2.03064 15.1662 1.57355C14.3465 0.558489 13.1681 0 11.9132 0C10.6322 0 9.4796 0.558492 8.63463 1.5226C8.25027 1.97918 7.96826 2.46136 7.71237 2.91845C7.51245 3.31849 7.30763 3.71611 7.09795 4.11122L7.02093 4.26383C5.04846 8.07007 3.12743 11.9273 1.35994 15.7338L1.3341 15.7842C1.15497 16.1909 0.949733 16.6221 0.744758 17.0784C0.616809 17.3578 0.48886 17.6622 0.36091 17.9921C0.0277303 18.9308 -0.07489 19.8191 0.0535711 20.733C0.335316 22.6364 1.61583 24.2346 3.38358 24.9457C4.04968 25.225 4.74138 25.3518 5.45841 25.3518C5.66338 25.3518 5.91929 25.3264 6.12452 25.3008C6.97001 25.1994 7.84083 24.9206 8.68632 24.4384C9.73652 23.8545 10.7356 23.0174 11.8625 21.7993C12.9895 23.0174 14.0141 23.8545 15.0387 24.4384C15.8845 24.9206 16.7551 25.1994 17.6003 25.3008C17.8053 25.3267 18.0617 25.3518 18.2666 25.3518C18.9839 25.3518 19.701 25.225 20.3412 24.9457C22.1346 24.2346 23.3895 22.6111 23.6715 20.733C23.8749 19.845 23.7726 18.9572 23.4396 18.0179ZM11.8874 19.3375C10.504 17.6118 9.60729 15.9878 9.30021 14.6178C9.17226 14.034 9.14642 13.5264 9.22345 13.0696C9.27437 12.6635 9.42842 12.308 9.6334 12.0036C10.1201 11.3188 10.9398 10.8871 11.8876 10.8871C12.8357 10.8871 13.6809 11.2932 14.1421 12.0036C14.3471 12.308 14.5006 12.6637 14.5523 13.0696C14.6288 13.5267 14.6032 14.0593 14.4753 14.6178C14.1669 15.9624 13.2702 17.5867 11.8874 19.3375ZM22.1074 20.5302C21.9283 21.8498 21.0316 22.9921 19.7767 23.4996C19.162 23.7531 18.4957 23.8294 17.8301 23.7531C17.1898 23.6768 16.5491 23.4738 15.8835 23.0935C14.9612 22.5855 14.0392 21.7993 12.9632 20.6316C14.6536 18.5764 15.6782 16.6981 16.0626 15.0237C16.242 14.2368 16.2678 13.5264 16.1905 12.8663C16.0884 12.232 15.8576 11.6482 15.4991 11.1406C14.7045 9.99829 13.3723 9.33891 11.8871 9.33891C10.4019 9.33891 9.06965 10.0242 8.2756 11.1406C7.91708 11.6482 7.68626 12.232 7.5839 12.8663C7.48154 13.5264 7.50688 14.2621 7.71185 15.0237C8.09595 16.6981 9.14617 18.6015 10.811 20.657C9.76084 21.8244 8.81298 22.6113 7.89073 23.1189C7.22462 23.4996 6.58462 23.7027 5.94436 23.7785C5.25292 23.8548 4.58656 23.7531 3.99749 23.525C2.74256 23.0174 1.84589 21.8751 1.66676 20.5556C1.58999 19.9213 1.64091 19.287 1.89733 18.5764C1.97384 18.3224 2.1023 18.0689 2.23025 17.7644C2.40963 17.3583 2.6141 16.9265 2.81933 16.4953L2.84518 16.4449C4.61241 12.6635 6.50785 8.80627 8.48032 5.05074L8.55709 4.89812C8.76232 4.51785 8.9673 4.11173 9.17202 3.73095C9.37699 3.32482 9.60729 2.94404 9.88929 2.61397C10.4272 2.00554 11.1442 1.67521 11.9385 1.67521C12.7328 1.67521 13.4499 2.00554 13.9878 2.61397C14.2698 2.94481 14.5001 3.32558 14.7051 3.73095C14.9103 4.11173 15.1153 4.51785 15.3197 4.89812L15.3967 5.05074C17.3391 8.82188 19.2094 12.6291 21.0066 16.4702V16.4956C21.2118 16.9022 21.3909 17.3585 21.5959 17.7652C21.7238 18.0691 21.852 18.3226 21.9288 18.5767C22.1333 19.2358 22.21 19.8706 22.1074 20.5302Z" fill="#FF5A5F"/>
</svg>
